<?xml version="1.0" standalone="no"?>
<!DOCTYPE svg PUBLIC "-//W3C//DTD SVG 20010904//EN"
 "http://www.w3.org/TR/2001/REC-SVG-20010904/DTD/svg10.dtd">
<svg version="1.0" xmlns="http://www.w3.org/2000/svg"
 width="1254.000000pt" height="1254.000000pt" viewBox="0 0 1254.000000 1254.000000"
 preserveAspectRatio="xMidYMid meet">

<g transform="translate(0.000000,1254.000000) scale(0.100000,-0.100000)"
fill="#000000" stroke="none">
<path d="M5985 10963 c-592 -49 -1092 -181 -1629 -429 -787 -363 -1450 -937
-1928 -1669 -396 -605 -649 -1306 -733 -2030 -107 -916 47 -1820 451 -2650
228 -468 511 -862 899 -1251 261 -261 477 -438 767 -628 617 -403 1311 -650
2032 -722 196 -20 655 -23 836 -5 745 73 1429 314 2062 727 691 450 1281 1126
1648 1887 275 570 423 1126 471 1767 15 193 6 653 -16 840 -111 967 -498 1864
-1111 2575 -127 147 -364 385 -499 501 -185 158 -509 386 -720 506 -553 314
-1182 510 -1839 573 -143 13 -567 19 -691 8z m474 -253 c952 -48 1793 -370
2541 -974 183 -147 492 -460 644 -651 541 -680 869 -1495 962 -2390 20 -195
23 -612 5 -805 -151 -1681 -1184 -3116 -2702 -3755 -683 -288 -1444 -392
-2164 -295 -966 129 -1847 574 -2547 1286 -215 219 -366 405 -536 660 -286
430 -488 886 -612 1384 -164 657 -179 1315 -46 1981 83 413 201 756 393 1139
223 446 489 808 854 1165 353 345 715 600 1164 820 568 278 1116 411 1820 443
17 1 117 -3 224 -8z"/>
<path d="M6055 9924 c-16 -2 -73 -9 -125 -15 -373 -41 -754 -147 -1093 -304
-398 -184 -729 -416 -1047 -735 -501 -500 -827 -1064 -993 -1715 -220 -865
-116 -1787 294 -2596 407 -804 1152 -1474 1989 -1791 573 -218 1222 -273 1830
-157 680 129 1317 469 1825 974 745 739 1141 1721 1112 2760 -10 376 -68 708
-184 1060 -310 942 -982 1733 -1834 2161 -381 190 -817 315 -1244 354 -101 9
-460 12 -530 4z m565 -115 c1026 -108 1922 -660 2517 -1549 420 -628 632
-1363 610 -2115 -9 -294 -38 -511 -107 -785 -224 -890 -782 -1670 -1550 -2165
-1055 -681 -2363 -722 -3448 -109 -507 287 -933 685 -1266 1184 -446 669 -654
1511 -575 2325 74 768 397 1484 937 2075 640 700 1472 1097 2417 1154 87 5
355 -3 465 -15z"/>
<path d="M6020 9300 c-58 -11 -134 -28 -170 -38 -64 -18 -65 -19 -68 -57 -4
-42 8 -55 50 -55 19 0 33 -9 45 -27 16 -25 18 -64 21 -428 3 -369 2 -403 -14
-416 -22 -18 -501 -27 -533 -9 -18 9 -21 20 -21 73 0 128 66 357 136 474 46
77 80 110 123 124 49 16 61 27 61 57 0 38 -42 162 -55 162 -6 0 -52 -27 -103
-60 -242 -160 -417 -416 -478 -700 -18 -85 -18 -288 0 -382 56 -290 247 -558
513 -720 85 -51 94 -51 113 9 12 34 12 35 -57 106 -38 40 -87 102 -107 140
-82 146 -150 399 -144 534 l3 68 272 3 c265 2 272 2 283 -18 8 -14 10 -143 8
-418 -4 -467 0 -450 -93 -464 -19 -3 -35 -40 -28 -68 8 -31 248 -84 436 -96
l108 -6 -3 38 c-3 33 -8 42 -39 58 -20 11 -42 28 -48 38 -28 44 -32 202 -29
1048 3 962 0 920 70 956 40 20 48 31 48 67 l0 27 -97 -1 c-54 0 -145 -9 -203
-19z"/>
<path d="M6390 9294 c0 -37 16 -61 49 -72 17 -6 38 -25 48 -44 16 -30 18 -70
21 -475 l3 -442 -63 -3 c-58 -3 -63 -5 -72 -31 -16 -46 1 -62 73 -65 l62 -3
-3 -442 c-3 -489 -3 -487 -67 -519 -42 -21 -51 -34 -51 -76 0 -33 1 -34 38
-28 20 3 60 8 87 12 94 11 277 65 371 109 337 157 569 427 655 761 34 131 32
339 -4 477 -115 438 -491 765 -975 848 -156 26 -172 26 -172 -7z m539 -387
c122 -73 254 -260 300 -427 106 -386 -18 -791 -299 -974 -59 -39 -94 -45 -104
-20 -3 9 -6 164 -6 345 l0 329 128 0 c135 0 152 5 152 46 0 53 -3 54 -146 54
l-134 0 0 333 c0 343 3 366 40 352 8 -3 39 -20 69 -38z"/>
<path d="M5530 6857 c-123 -37 -216 -93 -300 -177 -188 -188 -246 -464 -153
-723 55 -156 137 -264 382 -507 226 -224 559 -524 782 -703 l46 -37 289 252
c324 282 732 683 813 798 72 101 127 216 147 307 22 102 15 292 -15 376 -71
200 -214 340 -416 408 -59 20 -90 24 -195 24 -110 0 -134 -4 -204 -28 -138
-49 -257 -137 -349 -260 l-50 -67 -25 37 c-49 74 -115 144 -175 187 -132 93
-229 126 -387 132 -99 4 -125 1 -190 -19z m358 -132 c125 -39 233 -129 322
-266 21 -33 47 -81 56 -107 22 -58 16 -52 50 -58 127 -21 184 -94 192 -242 5
-84 5 -84 -19 -80 -23 3 -24 8 -29 93 -4 73 -9 96 -28 123 -65 91 -205 81
-254 -18 -13 -25 -18 -59 -18 -122 l0 -88 -105 0 c-123 0 -160 -12 -200 -65
-50 -64 -33 -157 37 -207 29 -20 47 -23 151 -26 l117 -4 0 -162 c0 -153 1
-165 23 -197 12 -19 39 -43 60 -54 l37 -20 0 -173 0 -174 -37 30 c-169 134
-567 498 -758 693 -216 220 -287 329 -321 490 -45 214 54 449 241 574 144 95
307 116 483 60z m860 -805 c69 -42 79 -130 22 -185 -33 -32 -86 -43 -212 -44
-102 -1 -98 -7 -98 130 l0 119 128 0 c109 0 132 -3 160 -20z m-308 -411 c0
-168 -9 -202 -59 -232 -56 -33 -121 -18 -158 36 -25 37 -27 57 -25 225 l2 122
120 0 120 0 0 -151z m266 136 c-27 -20 -69 -27 -151 -23 -57 2 -70 6 -73 21
-3 15 8 17 120 17 110 -1 121 -2 104 -15z"/>
<path d="M4075 5906 c-42 -18 -83 -69 -91 -114 -23 -122 93 -569 243 -932 84
-203 226 -492 288 -585 97 -146 185 -213 470 -357 238 -120 328 -171 397 -224
l56 -44 388 0 387 0 -6 144 c-11 240 -57 454 -130 603 -43 89 -143 210 -225
270 -38 29 -157 107 -263 174 -107 67 -266 170 -354 229 -206 138 -237 154
-300 154 -66 0 -110 -25 -136 -76 -46 -91 -2 -179 159 -321 125 -110 234 -223
256 -265 l17 -34 -23 7 c-58 18 -286 201 -390 314 -109 118 -291 438 -454 800
-73 163 -122 233 -181 257 -40 17 -69 17 -108 0z"/>
<path d="M8362 5899 c-56 -28 -91 -72 -147 -188 -283 -577 -385 -748 -540
-910 -125 -130 -332 -287 -352 -267 -19 18 77 125 271 301 154 139 190 214
147 309 -16 37 -29 51 -63 66 -85 39 -115 26 -393 -162 -110 -75 -267 -177
-350 -228 -206 -126 -261 -167 -341 -253 -170 -184 -237 -387 -260 -794 l-7
-123 386 0 c236 0 388 4 392 10 12 20 189 121 398 228 339 173 407 225 520
397 90 137 242 448 347 710 92 230 185 555 206 721 11 88 -25 161 -93 190 -44
19 -71 18 -121 -7z"/>
<path d="M4378 5789 c-10 -5 -18 -20 -18 -32 0 -27 211 -458 281 -574 l52 -85
25 52 c19 40 37 60 73 83 44 27 47 32 37 51 -25 48 -165 287 -216 369 -40 66
-66 96 -100 118 -48 30 -102 37 -134 18z"/>
<path d="M8044 5775 c-53 -31 -70 -55 -205 -276 -61 -101 -120 -196 -131 -211
l-19 -27 39 -20 c48 -24 86 -68 102 -117 l12 -36 65 108 c71 119 283 543 283
566 0 44 -82 52 -146 13z"/>
</g>
</svg>
